<?xml version="1.0" encoding="UTF-8" standalone="no"?>
<!DOCTYPE svg PUBLIC "-//W3C//DTD SVG 1.1//EN" "http://www.w3.org/Graphics/SVG/1.1/DTD/svg11.dtd">
<svg xmlns="http://www.w3.org/2000/svg" version="1.1" viewBox="0.00 0.00 1448.00 1448.00">
<g stroke-width="2.00" fill="none" stroke-linecap="butt">
<path stroke="#585af2" vector-effect="non-scaling-stroke" d="
  M 289.04 962.00
  Q 287.72 964.21 289.93 965.83
  Q 394.10 1041.85 517.26 1079.67
  A 0.68 0.67 26.5 0 0 518.00 1079.43
  Q 545.32 1042.34 566.34 1001.36
  Q 566.59 1000.89 566.09 1000.70
  L 551.29 995.00"
/>
<path stroke="#acb2f9" vector-effect="non-scaling-stroke" d="
  M 551.29 995.00
  L 554.49 989.07
  A 0.40 0.39 24.6 0 0 554.28 988.51
  Q 522.70 976.76 493.25 960.54"
/>
<path stroke="#585af2" vector-effect="non-scaling-stroke" d="
  M 493.25 960.54
  Q 500.82 955.51 507.87 949.40
  Q 508.27 949.05 508.76 949.27
  Q 562.30 973.73 616.07 986.15
  C 734.24 1013.47 853.92 1000.14 964.68 949.53
  Q 965.17 949.31 965.67 949.52
  Q 968.34 950.62 970.00 953.04"
/>
<path stroke="#acb2f9" vector-effect="non-scaling-stroke" d="
  M 970.00 953.04
  Q 934.33 973.86 895.62 988.49
  A 0.43 0.43 0.0 0 0 895.39 989.09
  Q 916.35 1030.18 943.74 1067.28
  Q 944.05 1067.69 944.55 1067.58
  L 946.96 1067.00"
/>
<path stroke="#585af2" vector-effect="non-scaling-stroke" d="
  M 946.96 1067.00
  L 955.86 1079.36
  Q 956.16 1079.78 956.66 1079.63
  Q 1080.73 1041.66 1184.65 965.37
  C 1185.58 964.68 1185.18 963.34 1185.26 962.56
  Q 1195.37 863.49 1180.74 770.25
  C 1162.78 655.81 1117.68 547.50 1052.05 452.69
  Q 1050.37 450.25 1047.13 451.08"
/>
<path stroke="#acb2f9" vector-effect="non-scaling-stroke" d="
  M 1047.13 451.08
  L 1040.01 440.49
  Q 1039.73 440.07 1039.26 439.85
  Q 949.91 398.97 852.99 382.36
  Q 852.42 382.27 852.14 382.77
  Q 839.30 405.88 829.00 430.24
  Q 828.78 430.74 828.23 430.67
  Q 727.51 416.16 626.75 429.96"
/>
<path stroke="#585af2" vector-effect="non-scaling-stroke" d="
  M 626.75 429.96
  Q 627.68 429.27 627.23 428.29
  Q 620.74 414.28 611.30 396.85
  C 609.56 393.64 608.41 394.22 604.96 395.50"
/>
<path stroke="#acb2f9" vector-effect="non-scaling-stroke" d="
  M 604.96 395.50
  L 598.17 382.62
  A 0.51 0.50 -18.7 0 0 597.64 382.36
  Q 500.72 398.69 411.46 439.69
  Q 410.99 439.91 410.70 440.34
  Q 383.76 480.00 359.46 525.94
  Q 281.50 673.32 273.53 839.30
  Q 270.99 892.25 276.70 952.66
  Q 276.74 953.14 277.14 953.43
  L 289.04 962.00"
/>
<path stroke="#aca7f9" vector-effect="non-scaling-stroke" d="
  M 604.96 395.50
  Q 613.70 412.57 621.42 430.13
  Q 621.64 430.62 622.18 430.55
  L 626.75 429.96"
/>
<path stroke="#aca7f9" vector-effect="non-scaling-stroke" d="
  M 1047.13 451.08
  C 1083.33 506.22 1113.22 564.16 1135.44 626.31
  C 1172.50 729.97 1184.26 842.40 1173.05 952.48
  Q 1172.99 952.99 1172.58 953.30
  Q 1085.56 1017.06 984.44 1054.18
  Q 972.27 1058.65 946.96 1067.00"
/>
<path stroke="#aca7f9" vector-effect="non-scaling-stroke" d="
  M 970.00 953.04
  L 971.74 951.99
  Q 972.20 951.71 971.78 951.38
  L 953.92 937.40
  A 0.94 0.94 0.0 0 0 952.95 937.29
  C 806.54 1005.16 643.57 1004.17 496.55 937.26
  A 0.60 0.59 36.8 0 0 495.93 937.34
  L 477.88 951.44
  Q 477.53 951.71 477.92 951.93
  L 493.25 960.54"
/>
<path stroke="#aca7f9" vector-effect="non-scaling-stroke" d="
  M 551.29 995.00
  Q 531.44 1032.94 505.88 1067.29
  Q 505.55 1067.73 505.02 1067.57
  Q 388.74 1031.69 289.04 962.00"
/>
<path stroke="#acb2f9" vector-effect="non-scaling-stroke" d="
  M 523.46 828.50
  C 558.66 860.96 611.09 854.08 638.34 815.58
  C 664.58 778.50 662.31 727.18 631.54 693.50"
/>
<path stroke="#aca7f9" vector-effect="non-scaling-stroke" d="
  M 631.54 693.50
  C 592.05 651.46 527.82 664.78 503.60 715.33
  C 485.48 753.14 492.39 799.43 523.46 828.50"
/>
<path stroke="#585af2" vector-effect="non-scaling-stroke" d="
  M 631.54 693.50
  L 631.45 694.14
  A 0.47 0.47 0.0 0 1 630.71 694.46
  C 610.31 679.61 583.92 676.75 561.07 685.16
  C 527.75 697.43 507.93 730.80 506.08 765.26
  Q 504.23 799.58 523.68 827.56
  Q 523.99 828.01 523.46 828.50"
/>
<path stroke="#acb2f9" vector-effect="non-scaling-stroke" d="
  M 823.46 828.25
  C 850.17 853.22 890.40 856.66 920.05 834.56
  C 964.11 801.71 968.43 735.15 933.04 694.75"
/>
<path stroke="#aca7f9" vector-effect="non-scaling-stroke" d="
  M 933.04 694.75
  C 888.12 645.34 816.23 669.68 798.29 729.76
  C 787.86 764.72 796.56 803.08 823.46 828.25"
/>
<path stroke="#585af2" vector-effect="non-scaling-stroke" d="
  M 933.04 694.75
  Q 931.85 695.16 930.69 694.30
  C 910.17 679.10 882.35 676.73 859.41 685.89
  C 828.34 698.31 809.34 729.48 806.53 762.01
  Q 803.44 797.82 823.65 827.04
  Q 824.03 827.59 823.46 828.25"
/>
</g>
<path fill="#5865f2" d="
  M 713.31 0.00
  L 735.06 0.00
  C 1128.86 7.51 1441.62 322.53 1448.00 715.81
  L 1448.00 733.06
  C 1441.86 1126.50 1126.94 1441.34 733.44 1448.00
  L 714.19 1448.00
  C 320.05 1441.15 6.29 1125.90 0.00 732.44
  L 0.00 714.69
  Q 3.07 538.87 83.56 386.30
  C 138.68 281.82 220.15 189.90 319.32 123.68
  Q 497.31 4.84 713.31 0.00
  Z
  M 289.04 962.00
  Q 287.72 964.21 289.93 965.83
  Q 394.10 1041.85 517.26 1079.67
  A 0.68 0.67 26.5 0 0 518.00 1079.43
  Q 545.32 1042.34 566.34 1001.36
  Q 566.59 1000.89 566.09 1000.70
  L 551.29 995.00
  L 554.49 989.07
  A 0.40 0.39 24.6 0 0 554.28 988.51
  Q 522.70 976.76 493.25 960.54
  Q 500.82 955.51 507.87 949.40
  Q 508.27 949.05 508.76 949.27
  Q 562.30 973.73 616.07 986.15
  C 734.24 1013.47 853.92 1000.14 964.68 949.53
  Q 965.17 949.31 965.67 949.52
  Q 968.34 950.62 970.00 953.04
  Q 934.33 973.86 895.62 988.49
  A 0.43 0.43 0.0 0 0 895.39 989.09
  Q 916.35 1030.18 943.74 1067.28
  Q 944.05 1067.69 944.55 1067.58
  L 946.96 1067.00
  L 955.86 1079.36
  Q 956.16 1079.78 956.66 1079.63
  Q 1080.73 1041.66 1184.65 965.37
  C 1185.58 964.68 1185.18 963.34 1185.26 962.56
  Q 1195.37 863.49 1180.74 770.25
  C 1162.78 655.81 1117.68 547.50 1052.05 452.69
  Q 1050.37 450.25 1047.13 451.08
  L 1040.01 440.49
  Q 1039.73 440.07 1039.26 439.85
  Q 949.91 398.97 852.99 382.36
  Q 852.42 382.27 852.14 382.77
  Q 839.30 405.88 829.00 430.24
  Q 828.78 430.74 828.23 430.67
  Q 727.51 416.16 626.75 429.96
  Q 627.68 429.27 627.23 428.29
  Q 620.74 414.28 611.30 396.85
  C 609.56 393.64 608.41 394.22 604.96 395.50
  L 598.17 382.62
  A 0.51 0.50 -18.7 0 0 597.64 382.36
  Q 500.72 398.69 411.46 439.69
  Q 410.99 439.91 410.70 440.34
  Q 383.76 480.00 359.46 525.94
  Q 281.50 673.32 273.53 839.30
  Q 270.99 892.25 276.70 952.66
  Q 276.74 953.14 277.14 953.43
  L 289.04 962.00
  Z"
/>
<path fill="#ffffff" d="
  M 604.96 395.50
  Q 613.70 412.57 621.42 430.13
  Q 621.64 430.62 622.18 430.55
  L 626.75 429.96
  Q 727.51 416.16 828.23 430.67
  Q 828.78 430.74 829.00 430.24
  Q 839.30 405.88 852.14 382.77
  Q 852.42 382.27 852.99 382.36
  Q 949.91 398.97 1039.26 439.85
  Q 1039.73 440.07 1040.01 440.49
  L 1047.13 451.08
  C 1083.33 506.22 1113.22 564.16 1135.44 626.31
  C 1172.50 729.97 1184.26 842.40 1173.05 952.48
  Q 1172.99 952.99 1172.58 953.30
  Q 1085.56 1017.06 984.44 1054.18
  Q 972.27 1058.65 946.96 1067.00
  L 944.55 1067.58
  Q 944.05 1067.69 943.74 1067.28
  Q 916.35 1030.18 895.39 989.09
  A 0.43 0.43 0.0 0 1 895.62 988.49
  Q 934.33 973.86 970.00 953.04
  L 971.74 951.99
  Q 972.20 951.71 971.78 951.38
  L 953.92 937.40
  A 0.94 0.94 0.0 0 0 952.95 937.29
  C 806.54 1005.16 643.57 1004.17 496.55 937.26
  A 0.60 0.59 36.8 0 0 495.93 937.34
  L 477.88 951.44
  Q 477.53 951.71 477.92 951.93
  L 493.25 960.54
  Q 522.70 976.76 554.28 988.51
  A 0.40 0.39 24.6 0 1 554.49 989.07
  L 551.29 995.00
  Q 531.44 1032.94 505.88 1067.29
  Q 505.55 1067.73 505.02 1067.57
  Q 388.74 1031.69 289.04 962.00
  L 277.14 953.43
  Q 276.74 953.14 276.70 952.66
  Q 270.99 892.25 273.53 839.30
  Q 281.50 673.32 359.46 525.94
  Q 383.76 480.00 410.70 440.34
  Q 410.99 439.91 411.46 439.69
  Q 500.72 398.69 597.64 382.36
  A 0.51 0.50 -18.7 0 1 598.17 382.62
  L 604.96 395.50
  Z
  M 523.46 828.50
  C 558.66 860.96 611.09 854.08 638.34 815.58
  C 664.58 778.50 662.31 727.18 631.54 693.50
  C 592.05 651.46 527.82 664.78 503.60 715.33
  C 485.48 753.14 492.39 799.43 523.46 828.50
  Z
  M 823.46 828.25
  C 850.17 853.22 890.40 856.66 920.05 834.56
  C 964.11 801.71 968.43 735.15 933.04 694.75
  C 888.12 645.34 816.23 669.68 798.29 729.76
  C 787.86 764.72 796.56 803.08 823.46 828.25
  Z"
/>
<path fill="#584ff2" d="
  M 626.75 429.96
  L 622.18 430.55
  Q 621.64 430.62 621.42 430.13
  Q 613.70 412.57 604.96 395.50
  C 608.41 394.22 609.56 393.64 611.30 396.85
  Q 620.74 414.28 627.23 428.29
  Q 627.68 429.27 626.75 429.96
  Z"
/>
<path fill="#584ff2" d="
  M 946.96 1067.00
  Q 972.27 1058.65 984.44 1054.18
  Q 1085.56 1017.06 1172.58 953.30
  Q 1172.99 952.99 1173.05 952.48
  C 1184.26 842.40 1172.50 729.97 1135.44 626.31
  C 1113.22 564.16 1083.33 506.22 1047.13 451.08
  Q 1050.37 450.25 1052.05 452.69
  C 1117.68 547.50 1162.78 655.81 1180.74 770.25
  Q 1195.37 863.49 1185.26 962.56
  C 1185.18 963.34 1185.58 964.68 1184.65 965.37
  Q 1080.73 1041.66 956.66 1079.63
  Q 956.16 1079.78 955.86 1079.36
  L 946.96 1067.00
  Z"
/>
<path fill="#584ff2" d="
  M 631.54 693.50
  L 631.45 694.14
  A 0.47 0.47 0.0 0 1 630.71 694.46
  C 610.31 679.61 583.92 676.75 561.07 685.16
  C 527.75 697.43 507.93 730.80 506.08 765.26
  Q 504.23 799.58 523.68 827.56
  Q 523.99 828.01 523.46 828.50
  C 492.39 799.43 485.48 753.14 503.60 715.33
  C 527.82 664.78 592.05 651.46 631.54 693.50
  Z"
/>
<path fill="#584ff2" d="
  M 933.04 694.75
  Q 931.85 695.16 930.69 694.30
  C 910.17 679.10 882.35 676.73 859.41 685.89
  C 828.34 698.31 809.34 729.48 806.53 762.01
  Q 803.44 797.82 823.65 827.04
  Q 824.03 827.59 823.46 828.25
  C 796.56 803.08 787.86 764.72 798.29 729.76
  C 816.23 669.68 888.12 645.34 933.04 694.75
  Z"
/>
<path fill="#5865f2" d="
  M 631.54 693.50
  C 662.31 727.18 664.58 778.50 638.34 815.58
  C 611.09 854.08 558.66 860.96 523.46 828.50
  Q 523.99 828.01 523.68 827.56
  Q 504.23 799.58 506.08 765.26
  C 507.93 730.80 527.75 697.43 561.07 685.16
  C 583.92 676.75 610.31 679.61 630.71 694.46
  A 0.47 0.47 0.0 0 0 631.45 694.14
  L 631.54 693.50
  Z"
/>
<path fill="#5865f2" d="
  M 933.04 694.75
  C 968.43 735.15 964.11 801.71 920.05 834.56
  C 890.40 856.66 850.17 853.22 823.46 828.25
  Q 824.03 827.59 823.65 827.04
  Q 803.44 797.82 806.53 762.01
  C 809.34 729.48 828.34 698.31 859.41 685.89
  C 882.35 676.73 910.17 679.10 930.69 694.30
  Q 931.85 695.16 933.04 694.75
  Z"
/>
<path fill="#584ff2" d="
  M 970.00 953.04
  Q 968.34 950.62 965.67 949.52
  Q 965.17 949.31 964.68 949.53
  C 853.92 1000.14 734.24 1013.47 616.07 986.15
  Q 562.30 973.73 508.76 949.27
  Q 508.27 949.05 507.87 949.40
  Q 500.82 955.51 493.25 960.54
  L 477.92 951.93
  Q 477.53 951.71 477.88 951.44
  L 495.93 937.34
  A 0.60 0.59 36.8 0 1 496.55 937.26
  C 643.57 1004.17 806.54 1005.16 952.95 937.29
  A 0.94 0.94 0.0 0 1 953.92 937.40
  L 971.78 951.38
  Q 972.20 951.71 971.74 951.99
  L 970.00 953.04
  Z"
/>
<path fill="#584ff2" d="
  M 289.04 962.00
  Q 388.74 1031.69 505.02 1067.57
  Q 505.55 1067.73 505.88 1067.29
  Q 531.44 1032.94 551.29 995.00
  L 566.09 1000.70
  Q 566.59 1000.89 566.34 1001.36
  Q 545.32 1042.34 518.00 1079.43
  A 0.68 0.67 26.5 0 1 517.26 1079.67
  Q 394.10 1041.85 289.93 965.83
  Q 287.72 964.21 289.04 962.00
  Z"
/>
</svg>
