<?xml version="1.0" encoding="UTF-8"?>
<svg id="Livello_1" data-name="Livello 1" xmlns="http://www.w3.org/2000/svg" viewBox="0 0 2000 2000">
  <defs>
    <style>
      .cls-1 {
        fill: #fff;
        stroke-width: 0px;
      }
    </style>
  </defs>
  <path class="cls-1" d="M999.08,154.37c-235.55,0-449.14,95.82-603.86,250.52,37.36-34.89,87.52-56.27,142.69-56.27,115.45,0,209.03,93.58,209.03,209.03,0,48.28-16.37,92.76-43.87,128.14,78.04-71.6,182.02-115.34,296-115.34,241.68,0,438.3,196.61,438.3,438.3s-196.62,438.3-438.3,438.3-438.3-196.62-438.3-438.3c0-110.52,41.12-211.62,108.86-288.79-35.96,29.21-81.8,46.73-131.73,46.73-115.45,0-209.03-93.58-209.03-209.03,0-53.56,20.15-102.43,53.28-139.41-147.03,153.53-237.46,361.65-237.46,590.5,0,471.1,383.27,854.38,854.38,854.38s854.38-383.27,854.38-854.38S1470.19,154.37,999.08,154.37Z"/>
  <ellipse class="cls-1" cx="1164.33" cy="1179.63" rx="171.8" ry="162.22"/>
  <circle class="cls-1" cx="1696.27" cy="1711.58" r="97.95"/>
</svg>