<?xml version="1.0" encoding="UTF-8"?>
<svg id="Livello_1" data-name="Livello 1" xmlns="http://www.w3.org/2000/svg" viewBox="0 0 7287.17 2098.84">
  <defs>
    <style>
      .cls-1 {
        fill: #fff;
        stroke-width: 0px;
      }
    </style>
  </defs>
  <g>
    <path class="cls-1" d="M2520.47,681.94h426.48v98.04h-309.42v144.27h299.35v97.67h-299.35v153.22h309.42v98.04h-426.48v-591.25Z"/>
    <path class="cls-1" d="M3080.78,1163.58v9.32h293.39v100.28h-377.64v-591.25h117.06v454.81c0,7.96-2.36,14.42-7.08,19.39-4.72,4.97-11.06,7.46-19.01,7.46h-6.71Z"/>
    <path class="cls-1" d="M3421.14,681.94h426.47v98.04h-309.42v144.27h299.35v97.67h-299.35v153.22h309.42v98.04h-426.47v-591.25Z"/>
    <path class="cls-1" d="M4158.89,1276.54c-92.7,0-160.06-22.37-202.05-67.1-42-44.74-63-121.65-63-230.76s20.94-187.39,62.82-231.13c41.88-43.74,109.29-65.61,202.24-65.61s157.32,20.2,195.34,60.58c38.02,40.39,57.04,102.09,57.04,185.09h-118.55c0-65.11-10.32-106.93-30.94-125.45-20.63-18.51-55.42-27.77-104.38-27.77s-86.24,11.43-109.6,34.3c-23.36,22.87-35.04,79.53-35.04,169.99s11.74,146.08,35.23,169.81c23.49,23.74,59.96,35.6,109.41,35.6s83.44-9.94,104.2-29.82c20.75-19.88,31.13-61.51,31.13-124.89h118.55c0,81.02-18.95,142.47-56.85,184.35-37.9,41.88-103.08,62.82-195.53,62.82Z"/>
    <path class="cls-1" d="M4741.2,1273.19h-117.06v-493.2h-186.4v-98.04h489.1v98.04h-218.83v8.57h7.08c7.95,0,14.29,2.42,19.01,7.27,4.72,4.85,7.08,11.25,7.08,19.2v458.16Z"/>
    <path class="cls-1" d="M4967.85,681.94h312.77c57.16,0,98.85,16.53,125.07,49.58,26.22,33.06,39.33,78.79,39.33,137.19s-13.67,100.53-41.01,132.34c-22.62,26.35-56.29,41.75-101.03,46.23l3.73,7.46,42.87-6.71,93.94,225.17h-127.5l-85.74-193.11-.37-22.74h-144.64v215.85h-117.43v-591.25ZM5248.57,967.5c27.09,0,47.03-8.14,59.83-24.42,12.8-16.28,19.2-40.45,19.2-72.51s-6.4-57.72-19.2-74.74c-12.8-17.02-32.75-25.54-59.83-25.54h-163.66v197.21h163.66Z"/>
    <path class="cls-1" d="M5765.62,1277.29c-81.77,0-147.81-21.25-198.14-63.75-50.33-42.5-75.49-120.41-75.49-233.74s25.16-191.3,75.49-233.93c50.33-42.62,116.37-63.93,198.14-63.93s148.19,21.31,198.51,63.93c50.33,42.63,75.49,120.6,75.49,233.93s-25.16,191.24-75.49,233.74c-50.33,42.5-116.5,63.75-198.51,63.75ZM5765.62,1185.95c46.47,0,84.31-12.24,113.52-36.72,29.2-24.48,43.8-80.95,43.8-169.43s-14.6-145.26-43.8-169.62c-29.21-24.35-67.04-36.53-113.52-36.53s-83.94,12.18-113.14,36.53c-29.21,24.36-43.8,80.9-43.8,169.62s14.6,144.96,43.8,169.43c29.2,24.48,66.92,36.72,113.14,36.72Z"/>
    <path class="cls-1" d="M6202.9,1273.19h-116.68v-591.25h205.41l235.23,496.93h7.08l-15.66-120.04c-.5-4.97-.93-10.56-1.3-16.78-.37-6.21-.56-11.8-.56-16.78v-343.34h116.68v591.25h-196.83l-243.06-513.33h-6.71l14.54,118.92c.5,4.23.93,9.01,1.3,14.35.37,5.35.56,10.25.56,14.72v365.34Z"/>
  </g>
  <g>
    <path class="cls-1" d="M1370.52,396.09c-170.85,0-325.76,69.5-437.98,181.7,27.1-25.31,63.48-40.81,103.5-40.81,83.73,0,151.61,67.88,151.61,151.61,0,35.02-11.88,67.28-31.82,92.94,56.6-51.94,132.02-83.66,214.69-83.66,175.29,0,317.9,142.6,317.9,317.9s-142.61,317.9-317.9,317.9-317.9-142.61-317.9-317.9c0-80.16,29.82-153.49,78.96-209.46-26.08,21.19-59.33,33.89-95.55,33.89-83.73,0-151.61-67.88-151.61-151.61,0-38.85,14.61-74.29,38.64-101.11-106.64,111.36-172.23,262.31-172.23,428.29,0,341.69,277.99,619.68,619.68,619.68s619.68-277.99,619.68-619.68-277.99-619.68-619.68-619.68Z"/>
    <ellipse class="cls-1" cx="1490.37" cy="1139.72" rx="124.61" ry="117.66"/>
    <circle class="cls-1" cx="1876.19" cy="1525.54" r="71.04"/>
  </g>
</svg>