<?xml version="1.0" encoding="UTF-8" standalone="no"?>
<!DOCTYPE svg PUBLIC "-//W3C//DTD SVG 1.1//EN" "http://www.w3.org/Graphics/SVG/1.1/DTD/svg11.dtd">
<svg xmlns="http://www.w3.org/2000/svg" version="1.1" viewBox="0.00 0.00 400.00 400.00">
<g stroke-width="2.00" fill="none" stroke-linecap="butt">
<path stroke="#808080" vector-effect="non-scaling-stroke" d="
  M 284.82 95.75
  A 0.35 0.35 0.0 0 0 284.57 95.86
  L 216.02 169.17
  A 0.35 0.35 0.0 0 1 215.48 169.14
  L 160.55 95.89
  A 0.35 0.35 0.0 0 0 160.27 95.75
  L 100.43 95.75
  A 0.35 0.35 0.0 0 0 100.15 96.31
  L 181.69 205.48
  A 0.35 0.35 0.0 0 1 181.67 205.92
  L 100.27 292.91
  A 0.35 0.35 0.0 0 0 100.53 293.50
  L 116.91 293.50
  A 0.35 0.35 0.0 0 0 117.16 293.39
  L 189.37 216.20
  A 0.35 0.35 0.0 0 1 189.91 216.22
  L 247.55 293.36
  A 0.35 0.35 0.0 0 0 247.83 293.50
  L 307.67 293.50
  A 0.35 0.35 0.0 0 0 307.95 292.94
  L 223.66 180.20
  A 0.35 0.35 0.0 0 1 223.68 179.76
  L 301.49 96.34
  A 0.35 0.35 0.0 0 0 301.23 95.75
  L 284.82 95.75"
/>
<path stroke="#808080" vector-effect="non-scaling-stroke" d="
  M 126.32 108.75
  A 0.34 0.34 0.0 0 0 126.05 109.29
  L 254.24 280.36
  A 0.34 0.34 0.0 0 0 254.51 280.50
  L 282.66 280.50
  A 0.34 0.34 0.0 0 0 282.93 279.96
  L 154.76 108.89
  A 0.34 0.34 0.0 0 0 154.49 108.75
  L 126.32 108.75"
/>
</g>
<path fill="#000000" d="
  M 0.00 0.00
  L 400.00 0.00
  L 400.00 400.00
  L 0.00 400.00
  L 0.00 0.00
  Z
  M 284.82 95.75
  A 0.35 0.35 0.0 0 0 284.57 95.86
  L 216.02 169.17
  A 0.35 0.35 0.0 0 1 215.48 169.14
  L 160.55 95.89
  A 0.35 0.35 0.0 0 0 160.27 95.75
  L 100.43 95.75
  A 0.35 0.35 0.0 0 0 100.15 96.31
  L 181.69 205.48
  A 0.35 0.35 0.0 0 1 181.67 205.92
  L 100.27 292.91
  A 0.35 0.35 0.0 0 0 100.53 293.50
  L 116.91 293.50
  A 0.35 0.35 0.0 0 0 117.16 293.39
  L 189.37 216.20
  A 0.35 0.35 0.0 0 1 189.91 216.22
  L 247.55 293.36
  A 0.35 0.35 0.0 0 0 247.83 293.50
  L 307.67 293.50
  A 0.35 0.35 0.0 0 0 307.95 292.94
  L 223.66 180.20
  A 0.35 0.35 0.0 0 1 223.68 179.76
  L 301.49 96.34
  A 0.35 0.35 0.0 0 0 301.23 95.75
  L 284.82 95.75
  Z"
/>
<path fill="#ffffff" d="
  M 284.82 95.75
  L 301.23 95.75
  A 0.35 0.35 0.0 0 1 301.49 96.34
  L 223.68 179.76
  A 0.35 0.35 0.0 0 0 223.66 180.20
  L 307.95 292.94
  A 0.35 0.35 0.0 0 1 307.67 293.50
  L 247.83 293.50
  A 0.35 0.35 0.0 0 1 247.55 293.36
  L 189.91 216.22
  A 0.35 0.35 0.0 0 0 189.37 216.20
  L 117.16 293.39
  A 0.35 0.35 0.0 0 1 116.91 293.50
  L 100.53 293.50
  A 0.35 0.35 0.0 0 1 100.27 292.91
  L 181.67 205.92
  A 0.35 0.35 0.0 0 0 181.69 205.48
  L 100.15 96.31
  A 0.35 0.35 0.0 0 1 100.43 95.75
  L 160.27 95.75
  A 0.35 0.35 0.0 0 1 160.54 95.89
  L 215.48 169.14
  A 0.35 0.35 0.0 0 0 216.02 169.17
  L 284.57 95.86
  A 0.35 0.35 0.0 0 1 284.82 95.75
  Z
  M 126.32 108.75
  A 0.34 0.34 0.0 0 0 126.05 109.29
  L 254.24 280.36
  A 0.34 0.34 0.0 0 0 254.51 280.50
  L 282.66 280.50
  A 0.34 0.34 0.0 0 0 282.93 279.96
  L 154.76 108.89
  A 0.34 0.34 0.0 0 0 154.49 108.75
  L 126.32 108.75
  Z"
/>
<path fill="#000000" d="
  M 126.32 108.75
  L 154.49 108.75
  A 0.34 0.34 0.0 0 1 154.76 108.89
  L 282.93 279.96
  A 0.34 0.34 0.0 0 1 282.66 280.50
  L 254.51 280.50
  A 0.34 0.34 0.0 0 1 254.24 280.36
  L 126.05 109.29
  A 0.34 0.34 0.0 0 1 126.32 108.75
  Z"
/>
</svg>
