<?xml version="1.0" encoding="utf-8"?>
<!-- Generator: Adobe Illustrator 23.1.1, SVG Export Plug-In . SVG Version: 6.00 Build 0)  -->
<svg version="1.1" id="Livello_1" xmlns="http://www.w3.org/2000/svg" xmlns:xlink="http://www.w3.org/1999/xlink" x="0px" y="0px"
	 viewBox="0 0 20 20" style="enable-background:new 0 0 20 20;" xml:space="preserve">
<style type="text/css">
	.st0{fill:#FFFFFF;}
</style>
<g>
	<path class="st0" d="M10,20c-1.5,0-3-0.4-4.4-1.1c-0.2-0.1-0.2-0.1-0.4,0.1c-0.8,0.9-1.9,1.2-3,0.9c-1.2-0.3-1.9-1.1-2.1-2.3
		c-0.2-1.1,0.1-2,0.9-2.7c0.1-0.1,0.1-0.2,0.1-0.3c-0.6-1.2-1-2.6-1-4c-0.1-3.2,1-5.9,3.5-8.1C5.1,1,6.9,0.3,9,0.1
		c1.9-0.2,3.7,0.1,5.4,1c0.2,0.1,0.3,0.1,0.4-0.1c0.9-1,2.2-1.2,3.4-0.7c1.2,0.5,1.9,1.6,1.8,2.9c0,0.8-0.4,1.5-1,2.1
		c-0.1,0.1-0.1,0.2-0.1,0.3c2.4,4.8,0.6,10.5-4,13.2C13.4,19.6,11.7,20,10,20z M14.3,1.7c-0.1-0.1-0.2-0.1-0.3-0.1
		c-1.7-0.8-3.4-1.1-5.2-0.8C6.5,1,4.5,2.1,2.9,3.9c-1.8,2-2.5,4.4-2.3,7c0.1,1.1,0.4,2.2,0.9,3.2c0.1,0.1,0.1,0.2,0.3,0.1
		c0.5-0.2,1-0.3,1.5-0.2c1.9,0.2,3.1,2.2,2.4,4c-0.1,0.3-0.1,0.3,0.2,0.4c1.9,0.9,3.8,1.1,5.9,0.7c5.8-1.2,9.1-7.4,6.7-12.9
		c-0.1-0.2-0.2-0.3-0.2-0.5c-1.3,0.5-2.5,0.3-3.4-0.6C13.9,4.1,13.8,3,14.3,1.7z M14.7,3c0,1.3,1.1,2.3,2.3,2.3c1.3,0,2.3-1,2.3-2.3
		c0-1.3-1-2.3-2.3-2.3C15.7,0.7,14.7,1.7,14.7,3z M3,19.3c1.3,0,2.3-1.1,2.3-2.3c0-1.3-1.1-2.3-2.4-2.3c-1.3,0-2.3,1-2.3,2.3
		C0.6,18.3,1.7,19.3,3,19.3z"/>
	<path class="st0" d="M15.3,10c0,2.9-2.4,5.3-5.3,5.3c-2.9,0-5.3-2.4-5.3-5.3c0-2.9,2.4-5.3,5.3-5.3C12.9,4.7,15.3,7.1,15.3,10z
		 M10,5.3c-2.6,0-4.7,2.1-4.7,4.7c0,2.6,2.1,4.7,4.7,4.7c2.6,0,4.7-2.1,4.7-4.7C14.7,7.4,12.6,5.3,10,5.3z"/>
	<path class="st0" d="M17,3.3c-0.3,0-0.6,0-0.9,0c-0.3,0-0.4-0.1-0.4-0.3c0-0.2,0.2-0.3,0.4-0.3c0.6,0,1.2,0,1.9,0
		c0.2,0,0.4,0.1,0.4,0.3c0,0.2-0.2,0.3-0.4,0.3C17.6,3.3,17.3,3.3,17,3.3C17,3.3,17,3.3,17,3.3z"/>
	<path class="st0" d="M3.7,17.3c-0.5,0-0.4-0.1-0.4,0.4c0,0.1,0,0.2,0,0.2c0,0.2-0.2,0.3-0.3,0.3c-0.2,0-0.3-0.1-0.3-0.3
		c0-0.2,0-0.3,0-0.5c0-0.1-0.1-0.2-0.2-0.2c-0.2,0-0.3,0-0.5,0c-0.2,0-0.4-0.2-0.4-0.3c0-0.2,0.2-0.3,0.4-0.3c0.2,0,0.3,0,0.5,0
		c0.1,0,0.2-0.1,0.2-0.2c0-0.1,0-0.3,0-0.4c0-0.2,0.1-0.4,0.3-0.4c0.2,0,0.3,0.2,0.3,0.4c0,0.1,0,0.3,0,0.4c0,0.1,0,0.2,0.2,0.2
		c0.1,0,0.3,0,0.4,0c0.2,0,0.4,0.1,0.4,0.3c0,0.2-0.1,0.3-0.4,0.3C3.9,17.3,3.8,17.3,3.7,17.3z"/>
	<path class="st0" d="M12.7,10c0,1.5-1.2,2.7-2.7,2.7c-1.5,0-2.7-1.2-2.7-2.7c0-1.5,1.2-2.7,2.7-2.7C11.5,7.3,12.7,8.5,12.7,10z
		 M10,8c-1.1,0-2,0.9-2,2c0,1.1,0.9,2,2,2c1.1,0,2-0.9,2-2C12,8.9,11.1,8,10,8z"/>
</g>
</svg>
